<svg width="24" height="24" viewBox="0 0 24 24" fill="none" xmlns="http://www.w3.org/2000/svg">
<g style="mix-blend-mode:darken">
<rect width="24" height="24" fill="white"/>
</g>
<path d="M9.06041 22.2857C7.35918 21.7573 5.81845 20.7796 4.58818 19.4478C4.98402 18.9594 5.23077 18.3592 5.29686 17.7241C5.36296 17.0889 5.24539 16.4477 4.95921 15.8824C4.67303 15.3172 4.23124 14.8536 3.69039 14.5511C3.14954 14.2485 2.53421 14.1207 1.92316 14.1841C1.78395 13.4746 1.71399 12.7524 1.71436 12.0284C1.71436 10.9101 1.87893 9.83147 2.18544 8.81809H2.22864C2.75309 8.81827 3.26892 8.67938 3.72744 8.41453C4.18596 8.14969 4.57203 7.76764 4.8492 7.30444C5.12637 6.84125 5.28549 6.31221 5.31154 5.76727C5.33759 5.22232 5.2297 4.67947 4.99807 4.18995C6.20386 3.02185 7.6621 2.17274 9.24967 1.71429C9.50803 2.24206 9.9017 2.68519 10.3871 2.99463C10.8725 3.30408 11.4308 3.46778 12.0001 3.46764C12.5694 3.46778 13.1276 3.30408 13.613 2.99463C14.0984 2.68519 14.4921 2.24206 14.7505 1.71429C16.338 2.17274 17.7963 3.02185 19.0021 4.18995C18.7687 4.68289 18.6609 5.22989 18.689 5.77858C18.717 6.32728 18.88 6.8593 19.1622 7.32372C19.4445 7.78815 19.8365 8.16944 20.301 8.43109C20.7654 8.69274 21.2866 8.82599 21.8147 8.81809C22.1279 9.857 22.2867 10.9396 22.2858 12.0284C22.2858 12.7667 22.2138 13.488 22.077 14.1841C21.4659 14.1207 20.8506 14.2485 20.3097 14.5511C19.7689 14.8536 19.3271 15.3172 19.0409 15.8824C18.7547 16.4477 18.6372 17.0889 18.7033 17.7241C18.7694 18.3592 19.0161 18.9594 19.412 19.4478C18.1817 20.7796 16.641 21.7573 14.9397 22.2857C14.74 21.6379 14.3476 21.0729 13.8193 20.672C13.291 20.2711 12.654 20.0551 12.0001 20.0551C11.3462 20.0551 10.7091 20.2711 10.1808 20.672C9.6525 21.0729 9.26019 21.6379 9.06041 22.2857Z" fill="white" stroke="#2C5282" stroke-width="2" stroke-linejoin="round"/>
<path d="M12.0009 15.7729C12.4736 15.7729 12.9418 15.676 13.3785 15.4878C13.8153 15.2995 14.2122 15.0237 14.5465 14.6759C14.8808 14.3281 15.1459 13.9152 15.3268 13.4608C15.5078 13.0064 15.6009 12.5194 15.6009 12.0275C15.6009 11.5357 15.5078 11.0487 15.3268 10.5943C15.1459 10.1399 14.8808 9.72699 14.5465 9.37921C14.2122 9.03142 13.8153 8.75554 13.3785 8.56732C12.9418 8.3791 12.4736 8.28223 12.0009 8.28223C11.0461 8.28223 10.1304 8.67682 9.45529 9.37921C8.78016 10.0816 8.40088 11.0342 8.40088 12.0275C8.40088 13.0209 8.78016 13.9735 9.45529 14.6759C10.1304 15.3783 11.0461 15.7729 12.0009 15.7729Z" fill="white" stroke="#2C5282" stroke-width="2" stroke-linejoin="round"/>
</svg>
