<svg width="23" height="23" viewBox="0 0 23 23" fill="none" xmlns="http://www.w3.org/2000/svg">
<g style="mix-blend-mode:darken">
<rect width="23" height="23" fill="white"/>
</g>
<path d="M11.5002 11.5C12.8073 11.5 14.0609 10.9808 14.9852 10.0565C15.9095 9.13219 16.4288 7.87859 16.4288 6.57145C16.4288 5.26432 15.9095 4.01072 14.9852 3.08643C14.0609 2.16214 12.8073 1.64288 11.5002 1.64288C10.1931 1.64288 8.93947 2.16214 8.01518 3.08643C7.0909 4.01072 6.57164 5.26432 6.57164 6.57145C6.57164 7.87859 7.0909 9.13219 8.01518 10.0565C8.93947 10.9808 10.1931 11.5 11.5002 11.5ZM14.7859 6.57145C14.7859 7.44288 14.4397 8.27861 13.8236 8.89481C13.2074 9.511 12.3716 9.85717 11.5002 9.85717C10.6288 9.85717 9.79305 9.511 9.17686 8.89481C8.56067 8.27861 8.21449 7.44288 8.21449 6.57145C8.21449 5.70003 8.56067 4.86429 9.17686 4.2481C9.79305 3.63191 10.6288 3.28574 11.5002 3.28574C12.3716 3.28574 13.2074 3.63191 13.8236 4.2481C14.4397 4.86429 14.7859 5.70003 14.7859 6.57145ZM21.3574 19.7143C21.3574 21.3572 19.7145 21.3572 19.7145 21.3572H3.28592C3.28592 21.3572 1.64307 21.3572 1.64307 19.7143C1.64307 18.0715 3.28592 13.1429 11.5002 13.1429C19.7145 13.1429 21.3574 18.0715 21.3574 19.7143ZM19.7145 19.7077C19.7129 19.3036 19.4615 18.0879 18.3476 16.974C17.2765 15.9029 15.2607 14.7857 11.5002 14.7857C7.73807 14.7857 5.72392 15.9029 4.65278 16.974C3.53892 18.0879 3.28921 19.3036 3.28592 19.7077H19.7145Z" fill="#2C5282"/>
</svg>
